<?xml version="1.0" encoding="UTF-8"?>
<svg id="Warstwa_1" data-name="Warstwa 1" xmlns="http://www.w3.org/2000/svg" viewBox="0 0 123 128">
  <defs>
    <style>
      .cls-1 {
        fill: #a3022f;
      }

      .cls-1, .cls-2 {
        stroke-width: 0px;
      }

      .cls-2 {
        fill: #fff;
      }
    </style>
  </defs>
  <path class="cls-1" d="M123,83.45c-2.74,3.56-2.55,8.81-6.68,11.61-.39.26-.51,1.33-.35,1.91,1.05,8.21-12.18,4.89-14.99.41-5.74-6.84-12.81-.84-15.58,5.41-2.54,4.4-5.45-3.89-10.2,1.1-2.72,2.04-7.79-1.73-7.85,3.36-1.04,16.65,20.22,3.24,28.47,11.64,23.02,14.34-116.47,9.11-83.17-.29,8.65,1.67,17.39,5.55,26.09,1.97,4.99-3.72,16.22-.13,17.24-7.37.19-2.87-2.6-2.88-4.48-2.95-9.32,1.2-8.47-12.93-17.61-10.3-2.83.49-4.78,2.1-4.66,5.35-1.62,8.93-18.48.78-21.59-3.6-4.24-6.6,1.68-11.41-7.49-16.87-1.62-12.03,9.53-11.3,8.93-19.36-.27-2.3.63-3.6,3.1-3.1,6.83.31-4.6-12.06,4.66-12.95,5.71-1.16-.11-8.08,3.69-10.85,8.03-5.11,1.75-16.49,10.06-20.7,2.77-2.95,3.21-8.07,8.65-7.17,8.03.35,3.13-8.51,13.97-4.29,1.73.39,3.45.39,3.79-1.67.55-5.83,7.19,1.57,7.56-4.17,7.83-2.28,10.07,8.91,17.17,8.03,7.62-1.75,7.53,10.15,13.37,11.17,10.45-.48,13.73,18.03,5.4,23.62-1.46,1.12-.93,2.44-.1,3.62,1.18,1.68,2.94,2.32,4.93,2.7,9.45.75,3.59,10.23,8.97,14.22,1.74,1.19,3.68,2.81,3.19,4.9-2.56,7.11,4.66,9.34,5.51,14.61Z"/>
  <path class="cls-2" d="M80.63,42.87c-5.11-5.11-11.9-7.92-19.13-7.92s-14.02,2.81-19.13,7.92c-5.11,5.11-7.92,11.9-7.92,19.13s2.81,14.02,7.92,19.13c5.11,5.11,11.9,7.92,19.13,7.92s14.02-2.81,19.13-7.92c5.11-5.11,7.92-11.9,7.92-19.13s-2.81-14.02-7.92-19.13ZM72.18,71.55c-.4.58-1.05.9-1.7.9-.4,0-.81-.12-1.16-.36l-10.06-6.89c-.56-.39-.9-1.02-.9-1.71l.03-16.87c0-1.14.93-2.06,2.06-2.06h0c1.14,0,2.06.93,2.06,2.07l-.02,15.78,9.16,6.28c.94.65,1.18,1.93.53,2.87Z"/>
</svg>